{
  "accessors": [
    {
      "bufferView": 2,
      "componentType": 5126,
      "count": 92,
      "max": [
        16.753124237060547,
        167.04847717285156,
        -89.65116882324219
      ],
      "min": [
        -16.753124237060547,
        150.9204864501953,
        -90.59893798828125
      ],
      "type": "VEC3"
    },
    {
      "bufferView": 2,
      "byteOffset": 1104,
      "componentType": 5126,
      "count": 92,
      "max": [
        0.9985228776931763,
        1.0,
        1.0
      ],
      "min": [
        -0.9985229969024658,
        -0.9985741376876831,
        -1.0
      ],
      "type": "VEC3"
    },
    {
      "bufferView": 3,
      "componentType": 5126,
      "count": 92,
      "max": [
        0.9999996423721313,
        0.5894147157669067,
        0.9930076003074646,
        1.0
      ],
      "min": [
        -0.37851884961128235,
        -0.6622723340988159,
        -0.968124270439148,
        1.0
      ],
      "type": "VEC4"
    },
    {
      "bufferView": 1,
      "componentType": 5126,
      "count": 92,
      "max": [
        0.5290719866752625,
        0.9833109974861145
      ],
      "min": [
        0.013332000002264977,
        0.48846399784088135
      ],
      "type": "VEC2"
    },
    {
      "bufferView": 0,
      "componentType": 5125,
      "count": 348,
      "type": "SCALAR"
    },
    {
      "bufferView": 2,
      "byteOffset": 2208,
      "componentType": 5126,
      "count": 176,
      "max": [
        16.9111328125,
        168.37989807128906,
        -89.15118408203125
      ],
      "min": [
        -16.9111328125,
        164.49485778808594,
        -92.56285095214844
      ],
      "type": "VEC3"
    },
    {
      "bufferView": 2,
      "byteOffset": 4320,
      "componentType": 5126,
      "count": 176,
      "max": [
        1.0,
        1.0,
        1.0
      ],
      "min": [
        -1.0,
        -1.0,
        -1.0
      ],
      "type": "VEC3"
    },
    {
      "bufferView": 3,
      "byteOffset": 1472,
      "componentType": 5126,
      "count": 176,
      "max": [
        0.7053499221801758,
        1.0,
        1.0,
        1.0
      ],
      "min": [
        -0.7067623734474182,
        -1.0,
        -1.0,
        1.0
      ],
      "type": "VEC4"
    },
    {
      "bufferView": 1,
      "byteOffset": 736,
      "componentType": 5126,
      "count": 176,
      "max": [
        0.9726939797401428,
        0.6481559872627258
      ],
      "min": [
        0.6934570074081421,
        0.03788800165057182
      ],
      "type": "VEC2"
    },
    {
      "bufferView": 0,
      "byteOffset": 1392,
      "componentType": 5125,
      "count": 372,
      "type": "SCALAR"
    },
    {
      "bufferView": 2,
      "byteOffset": 6432,
      "componentType": 5126,
      "count": 48,
      "max": [
        16.51721954345703,
        167.04847717285156,
        -90.23979187011719
      ],
      "min": [
        -16.51721954345703,
        151.09808349609375,
        -90.37357330322266
      ],
      "type": "VEC3"
    },
    {
      "bufferView": 2,
      "byteOffset": 7008,
      "componentType": 5126,
      "count": 48,
      "max": [
        1.0,
        1.0,
        1.0
      ],
      "min": [
        -1.0,
        -0.9999757409095764,
        -1.0
      ],
      "type": "VEC3"
    },
    {
      "bufferView": 3,
      "byteOffset": 4288,
      "componentType": 5126,
      "count": 48,
      "max": [
        0.9999971985816956,
        0.4456349313259125,
        0.9994015693664551,
        1.0
      ],
      "min": [
        0.0,
        -0.4727154076099396,
        -0.9952106475830078,
        1.0
      ],
      "type": "VEC4"
    },
    {
      "bufferView": 1,
      "byteOffset": 2144,
      "componentType": 5126,
      "count": 48,
      "max": [
        0.4980350136756897,
        0.48525699973106384
      ],
      "min": [
        0.012418000027537346,
        0.015789000317454338
      ],
      "type": "VEC2"
    },
    {
      "bufferView": 0,
      "byteOffset": 2880,
      "componentType": 5125,
      "count": 108,
      "type": "SCALAR"
    }
  ],
  "asset": {
    "extras": {
      "author": "tboiston (https://sketchfab.com/tboiston)",
      "license": "CC-BY-4.0 (http://creativecommons.org/licenses/by/4.0/)",
      "source": "https://sketchfab.com/3d-models/exit-sign-46b52e08b8b64b81ad9ff5fb752bcc06",
      "title": "Exit Sign"
    },
    "generator": "Sketchfab-12.65.0",
    "version": "2.0"
  },
  "bufferViews": [
    {
      "buffer": 0,
      "byteLength": 3312,
      "name": "floatBufferViews",
      "target": 34963
    },
    {
      "buffer": 0,
      "byteLength": 2528,
      "byteOffset": 3312,
      "byteStride": 8,
      "name": "floatBufferViews",
      "target": 34962
    },
    {
      "buffer": 0,
      "byteLength": 7584,
      "byteOffset": 5840,
      "byteStride": 12,
      "name": "floatBufferViews",
      "target": 34962
    },
    {
      "buffer": 0,
      "byteLength": 5056,
      "byteOffset": 13424,
      "byteStride": 16,
      "name": "floatBufferViews",
      "target": 34962
    }
  ],
  "buffers": [
    {
      "byteLength": 18480,
      "uri": "scene.bin"
    }
  ],
  "images": [
    {
      "uri": "textures/lambert1_baseColor.png"
    },
    {
      "uri": "textures/lambert1_metallicRoughness.png"
    },
    {
      "uri": "textures/lambert1_emissive.jpeg"
    },
    {
      "uri": "textures/lambert1_normal.png"
    }
  ],
  "materials": [
    {
      "alphaMode": "BLEND",
      "doubleSided": true,
      "emissiveFactor": [
        1.0,
        1.0,
        1.0
      ],
      "emissiveTexture": {
        "index": 2
      },
      "name": "lambert1",
      "normalTexture": {
        "index": 3
      },
      "occlusionTexture": {
        "index": 1
      },
      "pbrMetallicRoughness": {
        "baseColorTexture": {
          "index": 0
        },
        "metallicRoughnessTexture": {
          "index": 1
        }
      }
    }
  ],
  "meshes": [
    {
      "name": "defaultMaterial",
      "primitives": [
        {
          "attributes": {
            "NORMAL": 1,
            "POSITION": 0,
            "TANGENT": 2,
            "TEXCOORD_0": 3
          },
          "indices": 4,
          "material": 0,
          "mode": 4
        }
      ]
    },
    {
      "name": "defaultMaterial",
      "primitives": [
        {
          "attributes": {
            "NORMAL": 6,
            "POSITION": 5,
            "TANGENT": 7,
            "TEXCOORD_0": 8
          },
          "indices": 9,
          "material": 0,
          "mode": 4
        }
      ]
    },
    {
      "name": "defaultMaterial",
      "primitives": [
        {
          "attributes": {
            "NORMAL": 11,
            "POSITION": 10,
            "TANGENT": 12,
            "TEXCOORD_0": 13
          },
          "indices": 14,
          "material": 0,
          "mode": 4
        }
      ]
    }
  ],
  "nodes": [
    {
      "children": [
        1
      ],
      "matrix": [
        1.0,
        0.0,
        0.0,
        0.0,
        0.0,
        2.220446049250313e-16,
        -1.0,
        0.0,
        0.0,
        1.0,
        2.220446049250313e-16,
        0.0,
        0.0,
        0.0,
        0.0,
        1.0
      ],
      "name": "Sketchfab_model"
    },
    {
      "children": [
        2
      ],
      "matrix": [
        1.0,
        0.0,
        0.0,
        0.0,
        0.0,
        -4.371139006309477e-08,
        0.999999999999999,
        0.0,
        0.0,
        -0.999999999999999,
        -4.371139006309477e-08,
        0.0,
        0.0,
        0.0,
        0.0,
        1.0
      ],
      "name": "Collada visual scene group"
    },
    {
      "children": [
        3,
        5,
        7
      ],
      "name": "ExitSign_Low"
    },
    {
      "children": [
        4
      ],
      "name": "Glass_Low"
    },
    {
      "mesh": 0,
      "name": "defaultMaterial"
    },
    {
      "children": [
        6
      ],
      "name": "Joint_Low"
    },
    {
      "mesh": 1,
      "name": "defaultMaterial"
    },
    {
      "children": [
        8
      ],
      "name": "Sign_Low"
    },
    {
      "mesh": 2,
      "name": "defaultMaterial"
    }
  ],
  "samplers": [
    {
      "magFilter": 9729,
      "minFilter": 9987,
      "wrapS": 10497,
      "wrapT": 10497
    }
  ],
  "scene": 0,
  "scenes": [
    {
      "name": "Sketchfab_Scene",
      "nodes": [
        0
      ]
    }
  ],
  "textures": [
    {
      "sampler": 0,
      "source": 0
    },
    {
      "sampler": 0,
      "source": 1
    },
    {
      "sampler": 0,
      "source": 2
    },
    {
      "sampler": 0,
      "source": 3
    }
  ]
}
